HIERARCHY
ROOT Hips
{
	OFFSET 0.000000 97.167313 0.000000
	CHANNELS 6 Xposition Yposition Zposition Xrotation Yrotation Zrotation
	JOINT Spine
	{
		OFFSET 0.000000 13.784798 0.064400
		CHANNELS 3 Xrotation Yrotation Zrotation
		JOINT Spine1
		{
			OFFSET 0.000000 12.037903 0.404700
			CHANNELS 3 Xrotation Yrotation Zrotation
			JOINT Spine2
			{
				OFFSET 0.000000 17.795601 0.420200
				CHANNELS 3 Xrotation Yrotation Zrotation
				JOINT Neck
				{
					OFFSET 0.000000 39.131302 11.954600
					CHANNELS 3 Xrotation Yrotation Zrotation
					JOINT Head
					{
						OFFSET 0.000000 14.456192 15.627699
						CHANNELS 3 Xrotation Yrotation Zrotation
						JOINT HeadTop_End
						{
							OFFSET 0.000000 15.703506 7.603401
							CHANNELS 3 Xrotation Yrotation Zrotation
							End Site
							{
								OFFSET 0.000000 17.447403 0.000000
							}
						}
					}
				}
				JOINT LeftShoulder
				{
					OFFSET 17.399500 24.608795 1.168800
					CHANNELS 3 Xrotation Yrotation Zrotation
					JOINT LeftArm
					{
						OFFSET 18.980635 5.765305 1.818600
						CHANNELS 3 Xrotation Yrotation Zrotation
						JOINT LeftForeArm
						{
							OFFSET 49.290169 0.000000 0.000000
							CHANNELS 3 Xrotation Yrotation Zrotation
							JOINT LeftHand
							{
								OFFSET 31.562012 0.000000 0.000000
								CHANNELS 3 Xrotation Yrotation Zrotation
								JOINT LeftHandThumb1
								{
									OFFSET 6.133995 -4.388519 7.076070
									CHANNELS 3 Xrotation Yrotation Zrotation
									JOINT LeftHandThumb2
									{
										OFFSET 6.037666 -3.485840 3.485847
										CHANNELS 3 Xrotation Yrotation Zrotation
										JOINT LeftHandThumb3
										{
											OFFSET 6.496506 -3.750763 3.750761
											CHANNELS 3 Xrotation Yrotation Zrotation
											JOINT LeftHandThumb4
											{
												OFFSET 5.616882 -3.242905 3.242910
												CHANNELS 3 Xrotation Yrotation Zrotation
												End Site
												{
													OFFSET -1.254608 7.132141 0.375429
												}
											}
										}
									}
								}
								JOINT LeftHandPinky1
								{
									OFFSET 18.920792 -0.453171 -11.426712
									CHANNELS 3 Xrotation Yrotation Zrotation
									JOINT LeftHandPinky2
									{
										OFFSET 4.919586 0.000000 0.000000
										CHANNELS 3 Xrotation Yrotation Zrotation
										JOINT LeftHandPinky3
										{
											OFFSET 5.233047 0.000000 0.000000
											CHANNELS 3 Xrotation Yrotation Zrotation
											JOINT LeftHandPinky4
											{
												OFFSET 5.571716 0.000000 0.000000
												CHANNELS 3 Xrotation Yrotation Zrotation
												End Site
												{
													OFFSET -3.459808 4.342407 -0.466164
												}
											}
										}
									}
								}
								JOINT LeftHandRing1
								{
									OFFSET 22.726120 -0.094986 -6.500475
									CHANNELS 3 Xrotation Yrotation Zrotation
									JOINT LeftHandRing2
									{
										OFFSET 6.408615 0.000000 0.000000
										CHANNELS 3 Xrotation Yrotation Zrotation
										JOINT LeftHandRing3
										{
											OFFSET 6.150223 0.000000 0.000000
											CHANNELS 3 Xrotation Yrotation Zrotation
											JOINT LeftHandRing4
											{
												OFFSET 6.145386 0.000000 0.000000
												CHANNELS 3 Xrotation Yrotation Zrotation
												End Site
												{
													OFFSET -3.671402 4.923981 -0.202372
												}
											}
										}
									}
								}
								JOINT LeftHandMiddle1
								{
									OFFSET 23.373947 0.000000 0.000001
									CHANNELS 3 Xrotation Yrotation Zrotation
									JOINT LeftHandMiddle2
									{
										OFFSET 6.996567 0.000000 0.000000
										CHANNELS 3 Xrotation Yrotation Zrotation
										JOINT LeftHandMiddle3
										{
											OFFSET 7.015945 0.000000 0.000000
											CHANNELS 3 Xrotation Yrotation Zrotation
											JOINT LeftHandMiddle4
											{
												OFFSET 7.721573 0.000000 0.000000
												CHANNELS 3 Xrotation Yrotation Zrotation
												End Site
												{
													OFFSET -4.651108 6.158463 0.251582
												}
											}
										}
									}
								}
								JOINT LeftHandIndex1
								{
									OFFSET 21.310577 -0.490082 6.209344
									CHANNELS 3 Xrotation Yrotation Zrotation
									JOINT LeftHandIndex2
									{
										OFFSET 7.536453 0.000000 0.000000
										CHANNELS 3 Xrotation Yrotation Zrotation
										JOINT LeftHandIndex3
										{
											OFFSET 7.512344 0.000000 0.000000
											CHANNELS 3 Xrotation Yrotation Zrotation
											JOINT LeftHandIndex4
											{
												OFFSET 10.212402 0.000000 0.000001
												CHANNELS 3 Xrotation Yrotation Zrotation
												End Site
												{
													OFFSET -5.180801 8.690506 1.388433
												}
											}
										}
									}
								}
							}
						}
					}
				}
				JOINT RightShoulder
				{
					OFFSET -17.399500 24.608795 1.168800
					CHANNELS 3 Xrotation Yrotation Zrotation
					JOINT RightArm
					{
						OFFSET -18.980635 5.765305 1.818600
						CHANNELS 3 Xrotation Yrotation Zrotation
						JOINT RightForeArm
						{
							OFFSET -49.290169 0.000000 0.000000
							CHANNELS 3 Xrotation Yrotation Zrotation
							JOINT RightHand
							{
								OFFSET -31.562012 0.000000 0.000000
								CHANNELS 3 Xrotation Yrotation Zrotation
								JOINT RightHandThumb1
								{
									OFFSET -6.133995 -4.388519 7.076070
									CHANNELS 3 Xrotation Yrotation Zrotation
									JOINT RightHandThumb2
									{
										OFFSET -6.037666 -3.485840 3.485847
										CHANNELS 3 Xrotation Yrotation Zrotation
										JOINT RightHandThumb3
										{
											OFFSET -6.496506 -3.750763 3.750761
											CHANNELS 3 Xrotation Yrotation Zrotation
											JOINT RightHandThumb4
											{
												OFFSET -5.616882 -3.242905 3.242910
												CHANNELS 3 Xrotation Yrotation Zrotation
												End Site
												{
													OFFSET 1.254608 7.132141 0.375429
												}
											}
										}
									}
								}
								JOINT RightHandIndex1
								{
									OFFSET -21.310577 -0.490082 6.209344
									CHANNELS 3 Xrotation Yrotation Zrotation
									JOINT RightHandIndex2
									{
										OFFSET -7.536453 0.000000 0.000000
										CHANNELS 3 Xrotation Yrotation Zrotation
										JOINT RightHandIndex3
										{
											OFFSET -7.512344 0.000000 0.000000
											CHANNELS 3 Xrotation Yrotation Zrotation
											JOINT RightHandIndex4
											{
												OFFSET -10.212402 0.000000 0.000001
												CHANNELS 3 Xrotation Yrotation Zrotation
												End Site
												{
													OFFSET 5.180801 8.690506 1.388433
												}
											}
										}
									}
								}
								JOINT RightHandMiddle1
								{
									OFFSET -23.373947 0.000000 0.000001
									CHANNELS 3 Xrotation Yrotation Zrotation
									JOINT RightHandMiddle2
									{
										OFFSET -6.996567 0.000000 0.000000
										CHANNELS 3 Xrotation Yrotation Zrotation
										JOINT RightHandMiddle3
										{
											OFFSET -7.015945 0.000000 0.000000
											CHANNELS 3 Xrotation Yrotation Zrotation
											JOINT RightHandMiddle4
											{
												OFFSET -7.721573 0.000000 0.000000
												CHANNELS 3 Xrotation Yrotation Zrotation
												End Site
												{
													OFFSET 4.651108 6.158463 0.251582
												}
											}
										}
									}
								}
								JOINT RightHandRing1
								{
									OFFSET -22.726120 -0.094986 -6.500475
									CHANNELS 3 Xrotation Yrotation Zrotation
									JOINT RightHandRing2
									{
										OFFSET -6.408615 0.000000 0.000000
										CHANNELS 3 Xrotation Yrotation Zrotation
										JOINT RightHandRing3
										{
											OFFSET -6.150223 0.000000 0.000000
											CHANNELS 3 Xrotation Yrotation Zrotation
											JOINT RightHandRing4
											{
												OFFSET -6.145386 0.000000 0.000000
												CHANNELS 3 Xrotation Yrotation Zrotation
												End Site
												{
													OFFSET 3.671402 4.923981 -0.202372
												}
											}
										}
									}
								}
								JOINT RightHandPinky1
								{
									OFFSET -18.920792 -0.453171 -11.426712
									CHANNELS 3 Xrotation Yrotation Zrotation
									JOINT RightHandPinky2
									{
										OFFSET -4.919586 0.000000 0.000000
										CHANNELS 3 Xrotation Yrotation Zrotation
										JOINT RightHandPinky3
										{
											OFFSET -5.233047 0.000000 0.000000
											CHANNELS 3 Xrotation Yrotation Zrotation
											JOINT RightHandPinky4
											{
												OFFSET -5.571716 0.000000 0.000000
												CHANNELS 3 Xrotation Yrotation Zrotation
												End Site
												{
													OFFSET 3.459808 4.342407 -0.466164
												}
											}
										}
									}
								}
							}
						}
					}
				}
			}
		}
	}
	JOINT LeftUpLeg
	{
		OFFSET 19.899099 -7.885101 -3.429500
		CHANNELS 3 Xrotation Yrotation Zrotation
		JOINT LeftLeg
		{
			OFFSET 1.745560 -36.997807 10.304700
			CHANNELS 3 Xrotation Yrotation Zrotation
			JOINT LeftFoot
			{
				OFFSET -1.745558 -29.803308 -13.615400
				CHANNELS 3 Xrotation Yrotation Zrotation
				JOINT LeftToeBase
				{
					OFFSET 1.181900 -18.539904 15.226099
					CHANNELS 3 Xrotation Yrotation Zrotation
					JOINT LeftToe_End
					{
						OFFSET -0.863701 1.402801 16.534700
						CHANNELS 3 Xrotation Yrotation Zrotation
						End Site
						{
							OFFSET 0.000000 16.616566 0.000000
						}
					}
				}
			}
		}
	}
	JOINT RightUpLeg
	{
		OFFSET -19.899099 -7.885101 -3.429500
		CHANNELS 3 Xrotation Yrotation Zrotation
		JOINT RightLeg
		{
			OFFSET -1.745560 -36.997807 10.304700
			CHANNELS 3 Xrotation Yrotation Zrotation
			JOINT RightFoot
			{
				OFFSET 1.745558 -29.803308 -13.615400
				CHANNELS 3 Xrotation Yrotation Zrotation
				JOINT RightToeBase
				{
					OFFSET -1.181900 -18.539904 15.226099
					CHANNELS 3 Xrotation Yrotation Zrotation
					JOINT RightToe_End
					{
						OFFSET 0.863701 1.402801 16.534700
						CHANNELS 3 Xrotation Yrotation Zrotation
						End Site
						{
							OFFSET 0.000000 16.616566 0.000000
						}
					}
				}
			}
		}
	}
}
MOTION
Frames: 4
Frame Time: 0.033333
0.292062 72.064522 9.564894 -8.216706 -60.512464 -6.268746 4.964320 6.226927 -5.232070 1.928573 7.850640 1.247151 1.229164 7.682160 0.655313 -2.010101 9.367323 -2.093059 10.774163 24.755609 -8.225867 0.000000 0.000000 0.000000 1.365308 -13.732897 15.660968 -56.697626 -23.176780 -19.839196 0.000013 -25.625787 0.000011 -11.208398 2.312999 -4.166950 -6.141214 -11.690798 -6.761691 9.914174 42.595505 3.409827 -0.422798 8.108085 27.509097 0.000002 0.000001 -0.000002 -3.762426 9.063691 -45.253832 5.342528 5.829006 -85.005283 8.716842 5.103349 -119.369208 0.000001 0.000002 -0.000002 0.469730 4.966835 -39.799430 8.181044 5.368596 -113.502998 3.200494 5.218119 -63.022955 -0.000003 -0.000003 0.000005 -0.454039 3.850525 -39.722072 6.450744 5.820355 -95.892830 2.182875 4.561563 -51.127753 -0.000001 -0.000006 0.000004 0.255314 3.378207 -45.814351 5.654106 5.847767 -88.067448 2.162146 4.544811 -50.866382 0.000001 0.000001 -0.000001 -5.262348 24.396240 8.869055 -24.143068 42.318223 43.813389 -0.000085 108.839529 0.000127 -17.998360 6.824033 -19.773124 -7.341098 13.749669 7.412310 9.855798 -44.489089 -3.903264 -0.115785 -14.513081 -28.973840 0.000000 -0.000001 0.000004 -0.124375 -2.384772 45.108871 4.500597 -4.654546 88.071137 1.723231 -3.618367 50.920102 -0.000001 0.000000 -0.000001 -0.761623 -2.932905 39.031058 5.133898 -4.632752 95.881649 1.739740 -3.631707 51.181384 -0.000000 0.000001 -0.000006 0.154754 -4.068817 39.122661 6.509738 -4.273584 113.462857 2.549593 -4.153926 63.067371 -0.000003 -0.000004 -0.000004 -4.198868 -8.025491 44.637766 4.252903 -4.639624 85.014811 6.935980 -4.062647 119.322285 -0.000000 -0.000002 0.000002 -17.374449 18.495466 20.429340 63.494941 -7.704233 7.035876 -41.938864 4.559121 -13.292999 -1.594031 -0.000000 0.000006 -0.000000 -0.000002 0.000000 -8.116543 14.411841 -38.088523 49.528686 4.298011 5.304189 -17.818425 -17.941877 29.449607 -5.585809 -0.000013 -0.000001 -0.000000 0.000001 -0.000000 
0.487395 72.126663 9.291376 -8.876114 -57.989918 -6.967421 5.571383 3.150823 -5.600675 1.660255 6.874132 1.408409 1.000843 6.718347 0.796686 -2.590113 10.028242 -2.269219 11.123025 26.023470 -7.663593 -0.000000 -0.000000 0.000001 2.070868 -15.382018 16.560342 -60.288898 -19.404474 -22.754704 0.000020 -30.840794 0.000017 -11.688019 7.442146 -1.413458 -6.141207 -11.690800 -6.761689 9.914175 42.595512 3.409831 -0.422808 8.108086 27.509097 -0.000003 -0.000000 0.000000 -3.762428 9.063687 -45.253825 5.342520 5.829000 -85.005283 8.716842 5.103349 -119.369194 -0.000003 0.000001 -0.000004 0.469730 4.966830 -39.799434 8.181044 5.368595 -113.502991 3.200495 5.218119 -63.022955 -0.000002 -0.000004 0.000001 -0.448370 3.857335 -39.721546 6.450750 5.820356 -95.892823 2.182876 4.561565 -51.127753 0.000001 0.000003 0.000004 0.255319 3.378204 -45.814348 5.654110 5.847761 -88.067448 2.162148 4.544814 -50.866386 -0.000001 0.000001 0.000001 -4.875577 22.075235 8.187341 -28.597090 38.271862 45.425952 0.000037 115.167672 -0.000034 -18.500138 4.797970 -17.672196 -7.341100 13.749667 7.412313 9.855808 -44.489093 -3.903258 -0.115785 -14.513085 -28.973837 -0.000001 -0.000001 0.000001 -0.124373 -2.384780 45.108874 4.500598 -4.654547 88.071137 1.723232 -3.618364 50.920102 0.000000 -0.000002 0.000003 -0.761621 -2.932904 39.031061 5.133906 -4.632756 95.881649 1.739742 -3.631703 51.181381 -0.000000 0.000001 -0.000002 0.154755 -4.068815 39.122668 6.509738 -4.273586 113.462850 2.549591 -4.153920 63.067371 0.000000 -0.000001 -0.000003 -4.198868 -8.025492 44.637769 4.252903 -4.639626 85.014805 6.935979 -4.062644 119.322285 0.000003 -0.000001 -0.000001 -18.234438 15.717717 20.294080 63.998060 -6.783103 7.308300 -40.872016 3.855947 -14.258794 -1.594035 -0.000017 -0.000003 -0.000000 -0.000000 0.000000 -7.082706 11.397168 -37.806651 49.325611 5.469007 5.265821 -18.838171 -18.578821 28.404313 -5.711830 0.000007 -0.000002 -0.000000 0.000000 -0.000000 
0.541369 72.267532 9.212700 -7.940680 -53.861673 -6.290842 5.437860 3.320527 -5.203481 1.333547 6.724947 1.351747 0.706764 6.577733 0.765337 -2.962343 9.531011 -2.770077 11.265123 23.335334 -5.514235 0.000000 0.000000 0.000000 1.017793 -14.837421 13.810312 -58.964859 -17.197424 -29.737261 0.000063 -54.420345 0.000047 -13.520513 12.772980 6.264878 -6.141212 -11.690801 -6.761683 9.914165 42.595512 3.409829 -0.422805 8.108084 27.509096 0.000003 0.000000 0.000007 -3.762430 9.063682 -45.253825 5.342525 5.829002 -85.005283 8.716841 5.103348 -119.369194 -0.000002 -0.000001 -0.000006 0.469726 4.966831 -39.799430 8.181046 5.368599 -113.502998 3.200489 5.218119 -63.022948 -0.000001 0.000000 -0.000002 -0.442719 3.864108 -39.721027 6.450745 5.820352 -95.892823 2.182873 4.561565 -51.127753 -0.000001 -0.000000 0.000004 0.255311 3.378202 -45.814348 5.654108 5.847763 -88.067455 2.162147 4.544812 -50.866382 -0.000000 -0.000000 -0.000001 -3.769863 20.601280 4.688035 -34.046574 32.104259 44.595774 0.000019 117.568101 -0.000011 -17.616458 1.535949 -13.684105 -7.341100 13.749666 7.412311 9.855799 -44.489093 -3.903263 -0.115779 -14.513080 -28.973833 -0.000001 0.000000 0.000002 -0.124375 -2.384777 45.108868 4.500594 -4.654550 88.071137 1.723230 -3.618364 50.920102 -0.000000 -0.000001 0.000001 -0.761622 -2.932909 39.031065 5.133896 -4.632760 95.881649 1.739739 -3.631703 51.181381 0.000000 -0.000000 -0.000004 0.154754 -4.068818 39.122671 6.509743 -4.273586 113.462850 2.549591 -4.153918 63.067371 -0.000003 0.000003 -0.000001 -4.198867 -8.025490 44.637762 4.252906 -4.639625 85.014805 6.935978 -4.062646 119.322285 -0.000001 -0.000000 0.000002 -20.501363 11.806148 19.654365 64.549495 -6.537547 7.484860 -39.143186 2.899799 -14.568524 -1.594025 -0.000010 0.000003 0.000000 -0.000000 0.000000 -5.813160 5.937306 -37.484082 48.490590 6.746069 5.040225 -20.148737 -20.074720 27.380714 -5.753625 0.000015 0.000005 -0.000000 0.000000 -0.000000 
0.546216 72.519211 9.332432 -5.526005 -47.772621 -4.724748 4.118111 4.894287 -4.332399 1.150842 6.904851 1.389146 0.561899 6.768064 0.852248 -3.324328 8.279959 -3.382675 11.488182 18.044462 -2.632541 0.000000 -0.000000 0.000000 -0.458063 -11.171060 10.434446 -50.673324 -20.348209 -37.788162 0.000153 -75.834559 0.000138 -17.282455 8.033269 16.713198 -6.141213 -11.690798 -6.761687 9.914165 42.595505 3.409833 -0.422802 8.108084 27.509099 -0.000003 -0.000000 0.000001 -3.762432 9.063689 -45.253825 5.342527 5.829002 -85.005276 8.716842 5.103353 -119.369194 0.000002 0.000001 -0.000000 0.469725 4.966829 -39.799434 8.181047 5.368600 -113.502991 3.200489 5.218114 -63.022948 -0.000000 0.000003 0.000002 -0.437127 3.870845 -39.720494 6.450749 5.820355 -95.892823 2.182879 4.561568 -51.127753 0.000000 -0.000000 0.000008 0.255313 3.378203 -45.814348 5.654110 5.847767 -88.067448 2.162145 4.544813 -50.866382 -0.000003 0.000002 0.000006 -2.233388 20.892632 -0.156939 -40.087456 26.620601 42.016940 -0.000076 113.499357 0.000103 -15.545090 -0.862357 -9.032619 -7.341098 13.749666 7.412313 9.855809 -44.489089 -3.903256 -0.115783 -14.513080 -28.973837 0.000003 -0.000002 0.000003 -0.124376 -2.384776 45.108864 4.500596 -4.654549 88.071137 1.723228 -3.618362 50.920095 -0.000001 -0.000001 -0.000006 -0.761623 -2.932903 39.031058 5.133900 -4.632757 95.881649 1.739739 -3.631704 51.181387 0.000001 0.000001 -0.000009 0.154751 -4.068813 39.122664 6.509739 -4.273587 113.462850 2.549596 -4.153924 63.067371 -0.000002 0.000001 -0.000005 -4.198867 -8.025488 44.637766 4.252907 -4.639629 85.014798 6.935978 -4.062646 119.322298 0.000003 0.000001 0.000008 -24.928442 6.802414 18.649659 65.015041 -6.448241 7.746731 -36.352647 0.836753 -14.860629 -1.594034 -0.000000 -0.000002 -0.000000 -0.000000 0.000000 -3.019826 -0.482075 -36.605306 46.241279 7.582558 5.994886 -21.831732 -23.104638 26.051475 -5.776316 -0.000014 -0.000007 0.000000 0.000000 -0.000001 
